<svg width="59" height="19" viewBox="0 0 59 19" fill="none" xmlns="http://www.w3.org/2000/svg">
<path d="M0 18.9915V6.35351H2.06807L2.34505 11.1177L2.13732 10.1537C2.23888 9.43538 2.43276 8.76803 2.71896 8.14702C3.00979 7.53065 3.43448 7.03013 3.99305 6.65011C4.55623 6.27009 5.28559 6.08008 6.18576 6.08008C7.37675 6.08008 8.29999 6.45083 8.94627 7.1877C9.59254 7.92457 9.91568 9.04146 9.91568 10.5291V18.9869H7.47831V11.3587C7.47831 10.6403 7.40445 10.061 7.25673 9.62076C7.10901 9.18049 6.87358 8.86072 6.54121 8.6568C6.20884 8.45752 5.76568 8.35557 5.21173 8.35557C4.58854 8.35557 4.02998 8.53168 3.53604 8.88389C3.0421 9.2361 2.6728 9.67174 2.42814 10.1862V18.9915H0V18.9915Z" fill="#0D1836"/>
<path d="M13.0547 4.40699C12.5931 4.40699 12.2007 4.24479 11.8822 3.92502C11.5637 3.60524 11.4021 3.18815 11.4021 2.67836C11.4021 2.17785 11.5637 1.76539 11.8868 1.45025C12.2099 1.13511 12.5977 0.977539 13.0547 0.977539C13.5071 0.977539 13.8995 1.13511 14.2226 1.45025C14.5458 1.76539 14.7073 2.17785 14.7073 2.67836C14.7073 3.18815 14.5458 3.60524 14.2226 3.92502C13.8949 4.24479 13.5071 4.40699 13.0547 4.40699ZM11.8083 18.9914V6.37661H14.278L14.2457 18.9961H11.8083V18.9914Z" fill="#0D1836"/>
<path d="M15.4783 8.34522V6.16705H22.9243V8.34522H15.4783ZM20.3253 18.9904C19.3328 18.9904 18.5665 18.7355 18.0264 18.2258C17.4863 17.716 17.2186 16.993 17.2186 16.0569V9.4204C17.2186 9.17478 17.2694 8.94769 17.3663 8.74378C17.4679 8.53986 17.611 8.40547 17.8049 8.34522L17.214 6.66293V6.31535L17.791 2.52441H19.6283V15.5239C19.6283 15.9873 19.7344 16.3025 19.9468 16.474C20.1591 16.6454 20.5469 16.7288 21.1055 16.7288C21.4655 16.7288 21.7979 16.7288 22.0933 16.7288C22.3888 16.7288 22.6704 16.7242 22.9289 16.7149V18.8375C22.5042 18.907 22.0656 18.9487 21.6086 18.9626C21.1516 18.9858 20.7223 18.9904 20.3253 18.9904Z" fill="#0D1836"/>
<path d="M24.2122 18.9914V0.977539H26.6357V6.35344L26.451 9.959L26.5526 10.9786L26.391 10.1536C26.4833 9.45848 26.668 8.8004 26.9404 8.17939C27.2127 7.55838 27.6282 7.05323 28.1821 6.66858C28.7361 6.28392 29.4701 6.08928 30.3887 6.08928C31.5889 6.08928 32.5122 6.4554 33.1538 7.19226C33.7955 7.9245 34.1186 9.04139 34.1186 10.5429V19.0007H31.672V11.3586C31.672 10.3066 31.5104 9.54654 31.1827 9.0692C30.8549 8.59649 30.264 8.3555 29.41 8.3555C28.7868 8.3555 28.2375 8.55014 27.7574 8.9487C27.282 9.34263 26.908 9.80607 26.6357 10.339V18.9961H24.2122V18.9914Z" fill="#0D1836"/>
<path d="M39.4226 18.9918C38.3378 18.9918 37.4607 18.6117 36.7959 17.8563C36.1312 17.1009 35.7988 16.0304 35.7988 14.6447V6.08496H38.2362V14.0237C38.2362 14.6262 38.3054 15.1267 38.4485 15.5299C38.5916 15.9331 38.8178 16.2297 39.1364 16.4289C39.4503 16.6236 39.8611 16.7255 40.3597 16.7255C40.9921 16.7255 41.5507 16.5494 42.04 16.1972C42.5293 15.845 42.894 15.414 43.1433 14.9042V6.08496H45.5668V18.7369H43.4987L43.2217 14.1025L43.4433 14.9274C43.3418 15.6365 43.1479 16.3038 42.8617 16.9202C42.5708 17.5366 42.1508 18.0371 41.5968 18.4217C41.0383 18.8017 40.3181 18.9918 39.4226 18.9918Z" fill="#0D1836"/>
<path d="M47.3996 18.852L47.3904 0.824219H49.8139V6.47818L49.8278 16.1177L50.0355 16.5348L49.8139 16.8824L49.7077 18.852H47.3996ZM53.1791 18.9911C52.3344 18.9911 51.6604 18.8474 51.1665 18.5554C50.6679 18.2635 50.3078 17.9298 50.077 17.5544C49.8462 17.1744 49.7031 16.8546 49.6477 16.5904L49.0476 16.1594L49.7954 15.8814C49.8416 16.0575 49.9662 16.2429 50.1694 16.4329C50.3725 16.6229 50.6633 16.7804 51.0372 16.9056C51.4111 17.0307 51.8635 17.0956 52.3944 17.0956C53.3084 17.0956 54.0701 16.7341 54.6702 16.0158C55.2703 15.2974 55.5703 14.1296 55.5703 12.5168C55.5703 11.0431 55.2934 9.93081 54.7348 9.18931C54.1762 8.4478 53.4746 8.07705 52.6298 8.07705C52.0205 8.07705 51.5173 8.1651 51.1157 8.34121C50.7141 8.51732 50.4094 8.72587 50.2017 8.96685C49.9939 9.20784 49.8601 9.42566 49.7954 9.62494L49.6108 9.39322L49.8047 9.03174C49.8278 8.48488 49.9709 7.97509 50.234 7.50702C50.4971 7.03894 50.8895 6.66356 51.4111 6.37623C51.9328 6.08889 52.5975 5.94523 53.3961 5.94523C54.3978 5.94523 55.2426 6.20939 55.935 6.74698C56.6275 7.27993 57.1537 8.02144 57.5184 8.96685C57.8785 9.91227 58.0631 11.0106 58.0631 12.2619C58.0631 13.3881 57.9246 14.3752 57.643 15.2187C57.3615 16.0621 56.9875 16.7619 56.5167 17.318C56.0458 17.8742 55.5242 18.2913 54.9472 18.5647C54.3701 18.8567 53.7792 18.9911 53.1791 18.9911Z" fill="#0D1836"/>
</svg>
