<svg width="17" height="18" viewBox="0 0 17 18" fill="none" xmlns="http://www.w3.org/2000/svg">
<path d="M13.7823 1.69531L8.57983 8.88326C10.0155 6.89974 10.514 4.51303 10.1586 2.26534L13.7823 1.69531Z" fill="#62CF3A"/>
<path d="M16.9999 6.14079L8.57983 8.88899C10.9064 8.12895 12.7021 6.49764 13.7316 4.46777L16.9999 6.14079Z" fill="#62CF3A"/>
<path d="M16.9999 11.6327L8.57983 8.88452C10.9064 9.64456 13.3161 9.3804 15.338 8.35156L16.9999 11.6327Z" fill="#62CF3A"/>
<path d="M13.7823 16.0766L8.57983 8.88867C10.0155 10.8722 12.1205 12.0864 14.3594 12.4433L13.7823 16.0766Z" fill="#62CF3A"/>
<path d="M8.57983 17.7726V8.88379C8.57983 11.3354 9.57233 13.5599 11.1742 15.168L8.57983 17.7726Z" fill="#62CF3A"/>
<path d="M3.3772 16.0766L8.57969 8.88867C7.14404 10.8722 6.64549 13.2589 7.00094 15.5066L3.3772 16.0766Z" fill="#62CF3A"/>
<path d="M0.164551 11.632L8.58457 8.88379C6.25799 9.64383 4.46227 11.2751 3.43285 13.305L0.164551 11.632Z" fill="#62CF3A"/>
<path d="M0.164551 6.14062L8.58457 8.88882C6.25799 8.12878 3.84831 8.39294 1.8264 9.42178L0.164551 6.14062Z" fill="#62CF3A"/>
<path d="M3.37732 1.69531L8.57982 8.88326C7.14417 6.89974 5.03917 5.68553 2.80029 5.32868L3.37732 1.69531Z" fill="#62CF3A"/>
<path d="M8.57992 0V8.88414C8.57992 6.43254 7.58743 4.20803 5.9856 2.5999L8.57992 0Z" fill="#62CF3A"/>
</svg>
